<svg width="100" height="100" viewBox="0 0 100 100" fill="none" xmlns="http://www.w3.org/2000/svg">
<circle cx="50" cy="50" r="50" fill="#563C25"/>
<path d="M53.51 40.83H46.49C44 40.83 43.45 42.07 43.13 43.59L42 49H58L56.87 43.59C56.55 42.07 56 40.83 53.51 40.83Z" stroke="white" stroke-width="1.5" stroke-linecap="round" stroke-linejoin="round"/>
<path d="M59.99 57.82C60.1 58.99 59.16 60 57.96 60H56.08C55 60 54.85 59.54 54.66 58.97L54.46 58.37C54.18 57.55 54 57 52.56 57H47.44C46 57 45.79 57.62 45.54 58.37L45.34 58.97C45.15 59.54 45 60 43.92 60H42.04C40.84 60 39.9 58.99 40.01 57.82L40.57 51.73C40.71 50.23 41 49 43.62 49H56.38C59 49 59.29 50.23 59.43 51.73L59.99 57.82Z" stroke="white" stroke-width="1.5" stroke-linecap="round" stroke-linejoin="round"/>
<path d="M42 46H41" stroke="white" stroke-width="1.5" stroke-linecap="round" stroke-linejoin="round"/>
<path d="M59 46H58" stroke="white" stroke-width="1.5" stroke-linecap="round" stroke-linejoin="round"/>
<g opacity="0.4">
<path d="M50 41V43" stroke="white" stroke-width="1.5" stroke-linecap="round" stroke-linejoin="round"/>
<path d="M48.5 43H51.5" stroke="white" stroke-width="1.5" stroke-linecap="round" stroke-linejoin="round"/>
</g>
<path opacity="0.4" d="M44 53H47" stroke="white" stroke-width="1.5" stroke-linecap="round" stroke-linejoin="round"/>
<path opacity="0.4" d="M53 53H56" stroke="white" stroke-width="1.5" stroke-linecap="round" stroke-linejoin="round"/>
</svg>
