<svg width="100" height="100" viewBox="0 0 100 100" fill="none" xmlns="http://www.w3.org/2000/svg">
<circle cx="50" cy="50" r="50" fill="#563C25"/>
<path d="M42.92 58.28L44.69 59.65C44.92 59.88 45.43 59.99 45.78 59.99H47.95C48.64 59.99 49.38 59.48 49.55 58.79L50.92 54.62C51.21 53.82 50.69 53.13 49.83 53.13H47.54C47.2 53.13 46.91 52.8399 46.97 52.4399L47.26 50.61C47.37 50.1 47.03 49.52 46.52 49.35C46.06 49.18 45.49 49.41 45.26 49.75L42.92 53.24" stroke="white" stroke-width="1.5" stroke-miterlimit="10"/>
<path d="M40 58.28V52.6801C40 51.8801 40.34 51.59 41.14 51.59H41.71C42.51 51.59 42.85 51.8801 42.85 52.6801V58.28C42.85 59.08 42.51 59.37 41.71 59.37H41.14C40.34 59.37 40 59.09 40 58.28Z" stroke="white" stroke-width="1.5" stroke-linecap="round" stroke-linejoin="round"/>
<g opacity="0.4">
<path d="M57.0798 41.72L55.3098 40.35C55.0798 40.12 54.5698 40.01 54.2198 40.01H52.0498C51.3598 40.01 50.6198 40.52 50.4498 41.21L49.0798 45.38C48.7898 46.18 49.3098 46.87 50.1698 46.87H52.4598C52.7998 46.87 53.0898 47.1601 53.0298 47.5601L52.7398 49.39C52.6298 49.9 52.9698 50.48 53.4798 50.65C53.9398 50.82 54.5098 50.59 54.7398 50.25L57.0798 46.76" stroke="white" stroke-width="1.5" stroke-miterlimit="10"/>
<path d="M59.9999 41.72V47.3199C59.9999 48.1199 59.6599 48.41 58.8599 48.41H58.2899C57.4899 48.41 57.1499 48.1199 57.1499 47.3199V41.72C57.1499 40.92 57.4899 40.63 58.2899 40.63H58.8599C59.6599 40.63 59.9999 40.91 59.9999 41.72Z" stroke="white" stroke-width="1.5" stroke-linecap="round" stroke-linejoin="round"/>
</g>
</svg>
