<svg width="100" height="100" viewBox="0 0 100 100" fill="none" xmlns="http://www.w3.org/2000/svg">
<circle cx="50" cy="50" r="50" fill="#563C25"/>
<path d="M48 54.95H44.21C40.84 54.95 40 54.11 40 50.74V44.74C40 41.37 40.84 40.53 44.21 40.53H54.74C58.11 40.53 58.95 41.37 58.95 44.74" stroke="white" stroke-width="1.5" stroke-linecap="round" stroke-linejoin="round"/>
<path d="M48 59.47V54.95" stroke="white" stroke-width="1.5" stroke-linecap="round" stroke-linejoin="round"/>
<path opacity="0.4" d="M40 50.95H48" stroke="white" stroke-width="1.5" stroke-linecap="round" stroke-linejoin="round"/>
<path d="M44.74 59.47H48" stroke="white" stroke-width="1.5" stroke-linecap="round" stroke-linejoin="round"/>
<path d="M60 50.8V56.51C60 58.88 59.41 59.47 57.04 59.47H53.49C51.12 59.47 50.53 58.88 50.53 56.51V50.8C50.53 48.43 51.12 47.84 53.49 47.84H57.04C59.41 47.84 60 48.43 60 50.8Z" stroke="white" stroke-width="1.5" stroke-linecap="round" stroke-linejoin="round"/>
<path opacity="0.4" d="M55.2445 56.25H55.2535" stroke="white" stroke-width="2" stroke-linecap="round" stroke-linejoin="round"/>
</svg>
